<svg version="1.1" id="Calque_1" xmlns="http://www.w3.org/2000/svg" x="0px" y="0px" viewBox="0 0 360 360" enable-background="new 0 0 360 360" width="360" height="360" data-uid="o_f951b8fg1_6"><g data-uid="o_f951b8fg1_7"><path d="M103.07 155.61c-21.51 9.81-47.23 38.79-35.34 95.85c11.9 57.06 64.85 56.18 84.11 32.94
		c13.32-16.08 15.59-41.18 15.58-40.36c3.53 14.32 5.82 13.35 11.75 14.32c5.93 0.96 11.91 0 19.21 0c7.3 0 9.75-3.58 9.75-3.58
		l19.14 0.57c0 0 1.77 13.52 7.62 23.38c5.85 9.86 23.23 9.86 34.31 5.04c11.09-4.82 12.01-33.67 11.38-38.38
		c-0.62-4.71-2.37-13.97-2.37-13.97s1.8 0.95 3.86-2.61c2.07-3.56 0.51-11.48 0-21.99c-0.51-10.51-6.93-22.45-6.93-22.45
		s2.52 1.25 5.44 0c2.92-1.25 2.8-6.01 2.54-10.71c-0.26-4.7-6.37-9.26-6.37-9.26c-3.22-6.69-12.15-3.76-16.21-4.58
		c-4.06-0.82-22.5-0.32-25.66-2.02s-7.62-5.64-7.62-5.64s-3.51-16.14-14.64-23.79c-11.13-7.65-24.55-8.49-24.55-8.49l-2.79-4.3
		c0 0 2.03-4.14 1.99-4.32c-0.05-0.18 3.69-0.37 4.36-2.19c4.39 1.65 8.98 0.79 10.67-1.8c1.69-2.59 8.8-0.86 8.8-0.86
		c0 3.22 0 3.22 0 3.22s1.29 0.44 3.84 1.79s5.9 2.43 6.28 2.19c0.37-0.24 2.02-3.2 2.02-3.2s8.97 1.99 14.39 2.72
		c5.43 0.72 6.63 1.11 8.2-0.65c1.57-1.76 2.17-7.04 1.33-7.9c-0.84-0.86-6.35-1.97-6.35-1.97s0.44-3.5-1.37-4.33
		c-1.81-0.83-5.69 1.21-9.9-0.35c-4.21-1.56-13.27-3.85-13.27-3.85s6.89-12.3 8.1-14.35c1.21-2.05 16.28-7.24 16.28-7.24
		s1.57 4.22 5.43 5.19c3.86 0.96 8.8 0.24 11.82-5.19c3.01-5.43 3.14-13.75-7.48-16.64c-10.61-2.89-11.71 10.37-11.71 10.37
		s-12.77 5.55-16.39 7.11c-3.62 1.57-10.61 15.24-11.09 16.67c-0.48 1.42-0.48 1.42-0.48 1.42s-6.49-0.26-7.22 0.17
		c-0.73 0.43-2.42 5.63-2.42 5.63s-4.82 0.71-7.24 1.98c-2.41 1.27-2.17 2.85-4.94 2.6c-2.77-0.25-5.85-1.62-5.85-1.62
		s1.44-9.6 1.66-12.73c0.21-3.14-3.02-11.58-10.75-13.75c-7.73-2.17-14.12 5.55-14.12 5.55s-2.89-3.63-8.68-3.57
		c-5.79 0.07-7.06 1.64-8.29 3.81c-1.24 2.17-1.86 4.99-1.86 4.99s-0.34-2.82-4.32-4.99c-3.98-2.17-6.66-3.81-6.66-3.81
		s1.49-8.03-3.64-8.93c-5.13-0.89-8.99 7.06-8.27 13.46c0.72 6.39 7.36 3.98 10.01 0.48c4.22 1.57 5.6 1.77 7.26 3.78
		c1.66 2.01 1.54 7.8 2.38 9.6c0.84 1.81 0.36 0.96 0.36 0.96s-2.38 5.48-2.88 5.57c-0.5 0.1-7.41-0.12-10.35 1.43
		c-2.93 1.56-2.32 5.67-0.82 7.23s4.21 3.51 5.93 3.2c1.72-0.31 4.1-1.22 4.1-1.22s4.85 8.89 8.53 12.01
		c-1.99 2.88-1.99 2.88-1.99 2.88l-3.98-0.1c0 0-0.26-6.65-5.98-7.14c-5.72-0.49-11.27 4.79-12.47 8.78
		c-1.21 3.99 0.96 5.8 5.06 7.13c4.1 1.33 5.79 1.14 7.84 0.93c2.05-0.21 6.27-3.22 6.27-3.22l-4.83 10.24c0 0-10.97-2.4-24.35 0.98
		c-13.39 3.38-17.85 6.75-17.97 10.61c-0.12 3.86 4.58 0.84 7.72 0.36C101.13 154.25 103.07 155.61 103.07 155.61z" fill="#1c1818" data-uid="o_f951b8fg1_8"></path><g data-uid="o_f951b8fg1_9"><path class="st0" d="M140.57 100.83c-1.56 1.94-2.19 3.56-2.45 5.92c-0.17 1.57-1.05 6.66-0.01 7.93
			c-4.14-5.06-3.25-12.32 0.91-17.04c2.97-3.37 7.36-5.45 11.84-5.61c1.33-0.05 2.68 0.07 3.95 0.45c3.01 0.91 5.44 3.31 6.82 6.14
			c1.38 2.83 1.79 6.05 1.67 9.2c-0.08 2.16-0.69 4.69-2.71 5.47c0.22-4.83 0.35-10.01-2.25-14.1c-0.2 3.04-0.39 6.09-0.59 9.14
			c-0.07 1.05-0.26 2.3-1.22 2.74c-0.35-3.83-0.97-7.64-1.86-11.39c-0.62-0.4-1.17 0.61-1.23 1.35c-0.25 3.21-0.5 6.41-0.76 9.62
			c-1.46-3.32-2.34-6.88-2.59-10.5c-1.51 3.44-2.35 7.17-2.45 10.92c-1.36-3.49-2.19-7.17-2.47-10.91
			c-2.18 3.23-3.18 7.23-2.78 11.1C140.7 108.11 140.05 104.39 140.57 100.83z" fill="rgba(249,244,233,1)" data-uid="o_f951b8fg1_10"></path><path class="st0" d="M163.94 93.02c-3.13-3.01-7.9-5.02-12.1-3.09c4.11-0.37 8.08 2.15 10.42 5.55c2.33 3.4 3.28 7.56 3.78 11.65
			c0.74-1.87 0.95-3.95 0.61-5.93c1.5 1.67 2.44 3.84 2.63 6.07c-0.23-2.78 1.15-4.9-0.22-7.77
			C167.95 97.18 165.79 94.79 163.94 93.02z" fill="rgba(249,244,233,1)" data-uid="o_f951b8fg1_11"></path><path class="st1" d="M153.93 121.53c-2.28 1.33-5.29 1.72-7.84 1.09c-3.15-0.78-3.85-3.17-6.2-4.59
			c3.18 1.94 8.42 2.34 11.99 1.29c2.74-0.81 5.05-2.62 7.28-4.39C158.31 117.67 156.41 120.08 153.93 121.53z" fill="#FF7000" data-uid="o_f951b8fg1_12"></path><path class="st0" d="M148.59 87.46c-2.37 0.34-4.52 1.25-6.54 2.53c0.61-2.82 1.38-5.61 2.3-8.35c0.15-0.45 0.31-0.9 0.61-1.26
			c1.21-1.45 7.06-2.26 8.8-1.86c2.28 0.53 4.37 2.19 4.99 4.44c-1.79-0.85-3.36-0.88-5.33-1c1.31 1.15 2.54 2.38 3.7 3.67
			c-1.75-0.56-3.56-0.92-5.39-1.09c1.74 0.78 3.34 1.87 4.7 3.21C153.86 87.18 151.19 87.09 148.59 87.46z" fill="rgba(249,244,233,1)" data-uid="o_f951b8fg1_13"></path><path class="st0" d="M179.61 90.98c0.07 0.13 0.14 0.25 0.21 0.37c-4.46-4.22-9.76-4.65-15.52-5.22
			c-1.12-0.11-2.36-0.13-3.24 0.58c0.01-6 1.32-9.64 7.45-10.79c0.86-0.16 1.75-0.31 2.62-0.19c0.76 0.11 1.48 0.42 2.17 0.77
			c3 1.57 5.49 4.08 7.03 7.09c-2.08-1.3-4.35-2.28-6.72-2.9c2.42 1.22 4.51 3.1 5.98 5.38c-2.2-1.56-4.86-2.48-7.55-2.62
			C175.34 83.61 178.13 88.37 179.61 90.98z" fill="rgba(249,244,233,1)" data-uid="o_f951b8fg1_14"></path><path class="st0" d="M177.98 127.4c0.42-1.21-0.17-3.54-0.2-4.84c-1.24 1.82-2.56 2.84-3.27 5.13c-1.97-4.77 2.18-8.32 6.56-8.95
			c0.64-0.09 1.31-0.16 1.94-0.02c1.48 0.33 2.49 1.78 2.78 3.27c0.41 2.1-0.46 4.4-2.16 5.72c0.09-1.65 0.08-3.3-0.03-4.94
			c-1.11 1.38-2.05 2.89-2.82 4.48c-0.03-1.6-0.05-3.2-0.08-4.8C179.53 123.92 178.61 125.6 177.98 127.4z" fill="rgba(249,244,233,1)" data-uid="o_f951b8fg1_15"></path><path class="st0" d="M124.34 130.28c0.42-1.21-0.17-3.54-0.2-4.84c-1.24 1.82-2.56 2.84-3.27 5.13c-1.97-4.77 2.18-8.32 6.56-8.95
			c0.64-0.09 1.31-0.16 1.94-0.02c1.48 0.33 2.49 1.78 2.78 3.27c0.41 2.11-0.46 4.4-2.16 5.72c0.09-1.65 0.08-3.3-0.03-4.94
			c-1.11 1.38-2.05 2.89-2.82 4.48c-0.03-1.6-0.05-3.2-0.08-4.8C125.89 126.81 124.96 128.49 124.34 130.28z" fill="rgba(249,244,233,1)" data-uid="o_f951b8fg1_16"></path><path class="st0" d="M212.99 102.64c-0.15-1.69-0.7-3.35-1.6-4.79c-0.52 1.31-1.16 2.58-1.92 3.77c-0.28-1.37-0.56-2.74-0.84-4.11
			c-0.62 1.28-1.12 2.63-1.48 4.01c-0.26-0.74-0.21-1.59-0.64-2.25c-0.83-1.28-2.75-0.99-4.21-0.54c0.67-0.21 1.16-4.14 2.13-4.86
			c1.77-1.3 5.29-0.36 7.33-0.23c0.81 0.05 1.66 0.12 2.33 0.57C216.79 96.01 212.82 100.7 212.99 102.64z" fill="rgba(249,244,233,1)" data-uid="o_f951b8fg1_17"></path><path class="st1" d="M234.11 99.85c1.23 0.04 2.49 0.04 3.67 0.41c0.43 0.14 0.92 0.42 0.93 0.87c0.02 0.64-0.84 0.87-1.48 0.87
			c-7.26 0.01-13.56-3.04-20.59-3.84c-0.19-0.02-0.38-0.05-0.54-0.15c-0.44-0.29-0.28-1.04 0.17-1.32c1.73-1.1 5.58 1.07 7.23 1.53
			C226.95 99.17 230.52 99.72 234.11 99.85z" fill="#FF7000" data-uid="o_f951b8fg1_18"></path><path class="st1" d="M223.25 103.37c6.9 1.56 13.8 3.12 20.71 4.68c0.19 0.04 0.42 0.07 0.54-0.08c0.07-0.08 0.08-0.2 0.09-0.31
			c0.04-0.55 0.09-1.1 0.13-1.65c0.01-0.12 0.02-0.24-0.03-0.35c-0.09-0.2-0.35-0.27-0.57-0.31c-6.89-1.26-13.74-2.7-20.56-4.3
			L223.25 103.37z" fill="#FF7000" data-uid="o_f951b8fg1_19"></path><path class="st0" d="M215.66 100.61c1.3 0.36 3.02 0.65 5.77 0.77c0.23 1.56 0.03 3.19-0.58 4.64c-1.14-2.07-3.55-3.36-5.9-3.17
			L215.66 100.61z" fill="rgba(249,244,233,1)" data-uid="o_f951b8fg1_20"></path><path class="st1" d="M244.52 110.2c-1.21 1.21-3.16 1.15-4.86 0.93c-4.84-0.62-9.81-1.65-14.6-2.71c-0.85-0.19-1.94-0.78-1.65-1.6
			c0.53-1.48 9.21 1.58 10.34 1.78C237.33 109.21 240.92 109.75 244.52 110.2z" fill="#FF7000" data-uid="o_f951b8fg1_21"></path><path class="st0" d="M219.49 110.36c0.22 0.04 0.46 0.08 0.65-0.03c0.17-0.1 0.25-0.3 0.32-0.49c0.26-0.67 0.51-1.33 0.77-2
			c-2.86 0.89-6.52-0.3-7.92-3.06c0.01 1.19 0.01 2.39 0.02 3.58C213.32 108.5 219.06 110.28 219.49 110.36z" fill="rgba(249,244,233,1)" data-uid="o_f951b8fg1_22"></path><path class="st0" d="M171.66 125.85c-1.24-0.14-5.51-1.38-6.01 0.43c-0.1 0.35-0.06 0.72-0.02 1.09
			c-1.06-0.83-0.94-2.31-0.16-3.29c0.41-0.52 1.83-1.47 2.01-0.07c0.01 0.12 0.01 0.26 0.11 0.32l0.2 0.04
			c1.44-0.02 2.89-0.05 4.33-0.07c-0.09 0.46-0.17 0.93-0.26 1.39l-0.08 0.15L171.66 125.85z" fill="rgba(249,244,233,1)" data-uid="o_f951b8fg1_23"></path><path class="st1" d="M170.9 112.62c-0.54-0.65-1.84-1.29-2.65-0.57c-0.12 0.11-0.17 0.28-0.22 0.43c-0.2 0.76-0.29 1.56-0.27 2.35
			c-0.55-0.91-1.01-1.91-1.02-2.97c-0.01-2.43 2.15-2.89 4.14-2.5c1.07 0.21 2.03 0.75 2.96 1.33c1.81 1.13 3.53 2.42 5.24 3.7
			c0.78 0.59 1.57 1.17 2.35 1.76c0.53 0.39 1.11 1.05 0.76 1.61c-3.34-1.05-7.33 0.89-8.58 4.16c-0.29-2.45-1.21-4.82-2.65-6.82
			c1.27 0.9 2.54 1.79 3.81 2.69C173.56 116 172.27 114.28 170.9 112.62z" fill="#FF7000" data-uid="o_f951b8fg1_24"></path><path class="st0" d="M166.05 118.27c-1.63 5.31-8.32 8.25-13.51 8.01c-2.38-0.11-4.7-0.81-6.92-1.69
			c3.77 0.22 7.59-0.38 11.12-1.73c2.98-1.14 5.49-4.1 7.48-6.53c-0.55 2.82-2.4 5.36-4.92 6.75
			C161.98 122.21 164.37 120.51 166.05 118.27z" fill="rgba(249,244,233,1)" data-uid="o_f951b8fg1_25"></path><path class="st0" d="M178.23 106.23c0.11-0.33 0.21-0.65 0.31-0.98c1.14-0.07 2.27-0.37 3.38-0.1c0.79 0.19 2.3 1.76 2.81 1.76
			c-0.55 0-1.29-0.32-1.78 0c-0.32 0.21-0.51 0.56-0.69 0.9c-0.84 1.56-1.69 3.11-2.53 4.67c-0.05-0.9 0.21-1.79 0.46-2.65
			c0.22-0.76 0.44-1.52 0.66-2.28c-0.79 1.34-1.58 2.69-2.38 4.03c-0.59-0.53-1.26-0.96-1.98-1.28
			C177.18 108.99 177.76 107.63 178.23 106.23z" fill="rgba(249,244,233,1)" data-uid="o_f951b8fg1_26"></path><path class="st1" d="M182.8 114.74c-0.05-0.61-1.1-0.84-1.01-1.45c0.02-0.12 0.09-0.23 0.15-0.33c1.05-1.64 1.83-3.41 3.13-4.87
			c-0.02 0.02 0.23 1.22 0.21 1.39c-0.05 0.68-0.36 1.12-0.67 1.68C183.96 112.33 183.29 113.47 182.8 114.74z" fill="#FF7000" data-uid="o_f951b8fg1_27"></path><path class="st0" d="M163.95 158.23c-1.7-1.4-3.98-2.22-6.1-1.63c4.18-9.76 8.37-19.52 12.55-29.28c1.32 0.13 2.61 1.09 3.3 2.22
			c-3.31 8.01-7.31 15.62-10.92 23.49c0.28 0.08 0.55 0.17 0.83 0.25c4.44-7.42 8.44-15.1 11.98-22.99
			c-3.28 8.64-6.86 17.16-10.73 25.55C164.53 156.58 164.51 157.65 163.95 158.23z" fill="rgba(249,244,233,1)" data-uid="o_f951b8fg1_28"></path><path class="st1" d="M167.35 160.83c-0.7-0.4-1.02-1.26-0.98-2.06c0.03-0.8 0.35-1.56 0.67-2.29c3.56-8.29 6.66-16.65 9.92-25.06
			c-0.41 1.06-0.33 2.55-0.48 3.68c-0.23 1.75-0.89 3.19-1.55 4.8c-0.77 1.89-1.21 3.93-1.89 5.86
			C171.27 150.83 169.37 155.85 167.35 160.83z" fill="#FF7000" data-uid="o_f951b8fg1_29"></path><path class="st1" d="M187.28 125.93c0.03 1.35-0.76 3.06-1.79 3.95c-1.51 1.31-2.99 0.6-4.64 0.91c1.73-0.33 3.31-1.36 4.35-2.77
			c0.82-1.1 1.89-3.61 1.38-5.01C186.93 123.96 187.26 124.93 187.28 125.93z" fill="#FF7000" data-uid="o_f951b8fg1_30"></path><path class="st0" d="M161.65 164.04c-0.42-0.91-3.35-1.42-4.22-1.53c-1.24-0.17-2.88-0.31-3.93 0.51
			c0.32-1.29 1.29-4.52 2.69-4.89c1.34-0.36 2.77-0.48 4.1-0.11c1.33 0.37 2.56 1.28 3.1 2.55c-0.47-0.57-1.26-0.75-1.99-0.79
			c-0.74-0.04-1.49 0.03-2.2-0.18c1.49 0.36 2.76 1.5 3.29 2.94c-1.33-0.89-2.92-1.4-4.52-1.46
			C159.43 161.77 160.99 162.58 161.65 164.04z" fill="rgba(249,244,233,1)" data-uid="o_f951b8fg1_31"></path><path class="st0" d="M167.42 164.47c0 0.25-0.03 0.5-0.1 0.72c-0.52 1.6-1.26 3.14-2.17 4.55c0.39-2.47 1.34-5.21 0.5-7.67
			C166.74 162.22 167.41 163.4 167.42 164.47z" fill="rgba(249,244,233,1)" data-uid="o_f951b8fg1_32"></path><path class="st0" d="M155.25 165.02c-0.43 0.49-0.68 1.28-1.05 2.27c-0.87 2.32-1.73 4.65-2.58 6.97
			c-1.72 4.65-3.43 9.31-5.15 13.96c-3.41 9.19-6.89 18.37-10.62 27.44c-0.19 0.45-0.37 0.93-0.33 1.41
			c0.04 0.48 0.29 0.91 0.42 1.37c0.78 2.67-2.3 5.45-1.3 8.04c0.46 1.2 1.69 1.94 2.92 2.31c-0.57-2.49-1.03-5.21 0.12-7.49
			c1.06-2.11 3.01-1.89 4.99-1.58c0.24 0.04 0.52 0.06 0.68-0.12c0.11-0.13 0.12-0.31 0.12-0.48c0.09-5.53 2.74-10.64 4.4-15.92
			c0.63-2 1.12-4.03 1.68-6.04c1.07-3.8 2.41-7.52 3.75-11.24c1.64-4.56 3.29-9.12 4.93-13.67c-1.19 3.57-3.44 7.01-4.85 10.54
			c-1.44 3.6-2.72 7.26-3.96 10.93c-2.5 7.4-4.99 14.7-8.01 21.9c-0.16 0.38-0.33 0.77-0.66 1.02c-0.33 0.25-0.85 0.29-1.11-0.03
			c-0.56-0.69 1.24-5.48 1.5-6.38c0.62-2.2 1.34-4.36 2.11-6.51c1.5-4.15 3.49-7.99 4.95-12.12c3.23-9.12 6.62-18.19 10.18-27.19
			C157.42 164.42 155.96 164.2 155.25 165.02z" fill="rgba(249,244,233,1)" data-uid="o_f951b8fg1_33"></path><path class="st1" d="M162.1 173.68c-5.84 14.91-10.91 30.12-15.16 45.55c-0.15-0.37-0.07-0.79 0.01-1.18
			c2.24-10.4 5.08-20.67 8.51-30.75c1.25-3.68 2.94-7.37 3.91-11.13c0.83-3.24 2.77-6.14 2.92-9.6
			C163.95 168.7 162.98 171.44 162.1 173.68z" fill="#FF7000" data-uid="o_f951b8fg1_34"></path><path class="st0" d="M141 152.68c3.17 1.44 6.21 3.31 9.11 5.17c-6.71-8.85-17.44-12.76-28.23-13.3
			c-5.45-0.27-10.95 0.33-16.22 1.78c-4.48 1.23-10.86 2.72-12.89 7.42c0.85 0.65 2.06 0.22 3.03-0.22c2.95-1.34 5.5-3.39 8.8-2.98
			c3.43 0.43 6.57 2.16 10.07 2.34c3.75 0.19 7.32-1.32 10.98-2.2l0.18-0.04c0 0-0.01 0-0.01 0c0.26-0.06 0.52-0.12 0.78-0.18
			l-0.77 0.17c2.9-0.28 5.85-0.03 8.64 0.8c5.2 1.53 9.66 4.86 13.8 8.35C146.02 157.26 143.75 154.69 141 152.68z" fill="rgba(249,244,233,1)" data-uid="o_f951b8fg1_35"></path><path class="st1" d="M163.74 175.28c7.79 16.87 7.3 47.82 6.45 58.38c-1.82-4.85-1.21-7.28-1.46-18.08
			c-0.24-10.8-4.71-31.96-6.55-35.44C162.79 177.35 163.74 175.28 163.74 175.28z" fill="#FF7000" data-uid="o_f951b8fg1_36"></path><path class="st1" d="M133.89 131.79c1.17-1.19 1.56-2.42 1.33-3.99c-0.13-0.89-0.26-1.78-0.56-2.63c-0.2-0.57-1-1.46-1.05-1.99
			c0.16 1.78 0.08 4.07-0.52 5.78c-0.43 1.23-1.24 2.35-2.37 2.98c-1.35 0.75-2.99 0.73-4.54 0.69
			C128.53 134.15 131.92 133.78 133.89 131.79z" fill="#FF7000" data-uid="o_f951b8fg1_37"></path><path class="st1" d="M140.94 129.69c-0.36-0.29-4.14-1.84-3.8-0.19c-0.14-0.71-0.29-1.42-0.43-2.12c1.01-0.16 2.77-0.02 3.62 0.59
			C140.85 128.35 141.19 129.08 140.94 129.69z" fill="#FF7000" data-uid="o_f951b8fg1_38"></path><path class="st1" d="M182.16 91.47c-0.14 1.92-0.54 3.83-0.56 5.75c-0.45-0.45-0.92-0.96-1.02-1.59c-0.06-0.4 0.04-0.8 0.13-1.18
			c0.52-2.11 0.64-4.4 0.8-6.56c0.05-0.65 0.07-1.34-0.24-1.92c0.48 0.89 1.08 1.37 1.13 2.46
			C182.46 89.35 182.24 90.52 182.16 91.47z" fill="#FF7000" data-uid="o_f951b8fg1_39"></path><path class="st0" d="M186.99 108.98c0.14-2.1-1.73-4.16-3.63-4.84c-0.72-0.26-5.23-0.61-5.29 0.27c0.05-0.68 0.46-1.29 0.99-1.71
			c1.98-1.56 4.5-0.88 6.55 0.22c0.69 0.37 1.35 0.83 1.8 1.47c0.75 1.08 0.77 2.51 0.52 3.79c-0.05 0.24-0.11 0.5-0.28 0.68
			C187.49 109.06 187.19 109.14 186.99 108.98z" fill="rgba(249,244,233,1)" data-uid="o_f951b8fg1_40"></path><path class="st0" d="M196.52 103.18c-1.67 0.98-3.61 1.39-5.53 1.5c-2.12 0.12-1.85-1.29-3.63-1.74c2.05 0.18 4.03 0.42 5.88-0.6
			c1.58-0.87 3.03-2.02 4.75-2.56c1.71-0.53 3.55-0.42 5.33-0.27c0.5 0.04 1.01 0.09 1.45 0.32c0.45 0.23 0.82 0.67 0.8 1.17
			c-2.04-0.5-4.28-0.56-6.17 0.36C198.38 101.86 197.5 102.61 196.52 103.18z" fill="rgba(249,244,233,1)" data-uid="o_f951b8fg1_41"></path><path class="st1" d="M202.53 104.15c-2.06 0.64-3.09 2.19-5.03 2.94c-1.88 0.72-4 0.7-5.86-0.09c0.98 0.42 2.11 0.12 3.11-0.26
			c2.53-0.96 4.65-3.15 7.2-3.86c2.06-0.58 4.22 0.31 6.17 1.17C206.34 103.43 204.35 103.59 202.53 104.15z" fill="#FF7000" data-uid="o_f951b8fg1_42"></path><path class="st1" d="M176.53 100.1c-1.17 0.2-2.38-0.06-3.49-0.47c2.45-0.18 4.51-0.73 5.41-3.26c0.46 0.28 0.75 0.82 0.73 1.36
			C179.11 99.04 177.67 99.91 176.53 100.1z" fill="#FF7000" data-uid="o_f951b8fg1_43"></path><path class="st1" d="M174.39 104.12c1.35 1.5 1.57 4.98-1.4 4.39c-0.12-0.02-0.25-0.07-0.32-0.17c-0.07-0.11-0.05-0.24-0.03-0.36
			c0.12-0.76 0.17-1.54 0-2.29c-0.22-1-1.01-2.25-1.6-3.09C172.26 102.64 173.56 103.21 174.39 104.12z" fill="#FF7000" data-uid="o_f951b8fg1_44"></path><path class="st0" d="M138.66 135.76c-1.07 2.79-2.41 5.48-4.01 8.01c2.2 0.83 4.33 1.83 6.37 3c0.55-1.59 1.1-3.19 1.65-4.78
			c-0.62-0.08-1.12 0.48-1.55 0.92c-0.58 0.6-1.26 1.09-2.01 1.45c-0.15-0.38 0.05-0.8 0.23-1.17c0.86-1.68 1.64-3.41 2.31-5.17
			c0.09-0.22 0.08-0.58-0.16-0.57L138.66 135.76z" fill="rgba(249,244,233,1)" data-uid="o_f951b8fg1_45"></path><path class="st0" d="M154.58 157.28c-1.43-2.99-2.96-7.23-1.93-10.5c0.48-1.53 0.1-4.1 1.58-5.12c-2.23 0.97-3.28 1.62-4.07 4.18
			c-0.67 2.16-0.49 4.54 0.29 6.57c0.4 1.05 0.99 2.03 1.72 2.88C152.7 155.89 154.29 156.67 154.58 157.28z" fill="rgba(249,244,233,1)" data-uid="o_f951b8fg1_46"></path><path class="st0" d="M140.89 131.79c1.04-1.28 2.42-2.04 3.53-3.18c1.67-1.71-1.88-1.85-1.57-2.36
			C141.87 127.87 141.52 129.98 140.89 131.79z" fill="rgba(249,244,233,1)" data-uid="o_f951b8fg1_47"></path><path class="st0" d="M104.17 158.04c-9.11 3.29-16.62 9.56-23.34 21.19c-10.74 18.57-12.56 40.42-11.47 54.43
			c0.91-15.11 6.01-29.19 6.01-29.19c-2.18 18.99-1.09 29.55 0 36.83c0-16.2 2.91-31.68 4.73-35.5c-1.82 29.13 0.91 34.23 2 38.96
			c-1.64-18.39 1.09-34.44 4.73-48.17c3.64-13.73 16.77-37.11 43.89-38.55C119.61 153.74 109.62 156.07 104.17 158.04z" fill="rgba(249,244,233,1)" data-uid="o_f951b8fg1_48"></path><path class="st0" d="M103.4 260.42c4.32 7.08 10.11 14.53 18.21 17.41c7.9 2.8 16.22-1.34 21.45-7.37
			c4.01-4.62 6.53-10.36 8.45-16.17c2.87-8.72 4.52-18 3.45-27.12c-0.83 9.48-4.5 21.36-8.12 30.16c2.38-10.01 2.61-16.19 2.9-22.39
			c-2.08 8.98-3.93 19.18-8.39 27.25c1.36-4.37 2.59-8.78 3.82-13.2c0.72-2.57 1.44-5.31 0.69-7.87
			c-1.64 6.98-4.14 13.75-7.42 20.12c-1.76 3.42-5.19 7.6-8.55 9.53c-2.85 1.64-6.34 1.95-9.56 1.28
			C113.95 270.73 106.83 266.03 103.4 260.42z" fill="rgba(249,244,233,1)" data-uid="o_f951b8fg1_49"></path><path class="st0" d="M125.24 200.47c-3.32 1.14-5.92 3.89-7.53 7.01c-1.61 3.12-2.35 6.62-2.9 10.09
			c-1.16 7.34-0.88 13.66 1.81 20.64c0.93 2.41 2.07 4.77 3.77 6.72c1.7 1.94 4 3.45 6.56 3.78c5.2 0.68 6.34-2.38 8.36-6.25
			c-0.7 1.34-2.01 2.34-3.49 2.65c1.38-1.21 2.36-2.86 2.79-4.65c-0.89 1.09-2.16 1.85-3.54 2.14c1.24-1.4 1.97-3.23 2.03-5.1
			c-1.04 1.58-2.84 2.81-4.72 2.61c-2.71-0.29-4.27-3.2-5.04-5.82c-2.03-6.92-1.9-14.46 0.37-21.3c0.43-1.28 0.96-2.59 1.96-3.5
			c2.25-2.04 5.9-0.23 6.29 2.68c-0.29-2.14-1.12-4.2-2.39-5.95c1.49 0.89 2.82 2.05 3.91 3.4c-0.45-0.55-1.93-5.1-1.79-5.65
			c1.28 0.6 2.31 1.88 2.94 3.14c0.29-1.18-0.33-2.37-0.92-3.43c-0.74-1.31-1.56-2.71-2.93-3.34
			C129.14 199.58 126.9 199.9 125.24 200.47z" fill="rgba(249,244,233,1)" data-uid="o_f951b8fg1_50"></path><path class="st0" d="M145.97 225.32c0.37-0.6 0.75-1.21 0.89-1.9c0.14-0.69 0-1.48-0.54-1.94c-0.95-0.82-5.93-0.23-6.93 0.33
			c-0.67 0.37-1.11 1.28-0.71 1.94c-0.26-0.42 3.53-0.82 3.91-0.78C144.11 223.09 145.58 223.62 145.97 225.32z" fill="rgba(249,244,233,1)" data-uid="o_f951b8fg1_51"></path><path class="st1" d="M95.94 241.85c-5.28-20.79 0.18-46.6 9.65-59.89c9.47-13.29 21.38-10.74 27.49-8.01
			c-11.37-2-20.21 1.48-26.58 12.02C92.84 208.54 95.94 229.47 95.94 241.85z" fill="#FF7000" data-uid="o_f951b8fg1_52"></path><path class="st1" d="M163.48 214.91c1.48 26.22-4.17 68.81-35.32 77.92c14.36 1.09 26.85-17.3 29.7-24.39
			C165.15 250.23 165.83 226.56 163.48 214.91z" fill="#FF7000" data-uid="o_f951b8fg1_53"></path><path class="st0" d="M217.17 136.74c-6.32-9.02-17.8-12.72-28.63-14.72c0.35 2.11 0.43 4.71 0.27 6.84
			c-0.17 2.13-1.49 4.39-3.61 4.72c-1.36 0.21-3.12-0.25-3.86 0.92c-0.25 0.4-0.29 0.9-0.29 1.38c0 3.05 1.19 6.07 3.25 8.31
			c0.11-2.13 0.23-4.26 0.34-6.4c1.31 3.04 3.34 5.78 5.88 7.91c-0.55-3.18-1.11-6.37-1.66-9.55c1.99 3.14 3.97 6.28 5.96 9.41
			c-0.76-1.2-0.69-5.59-0.62-7.05c0.14-2.85 0.98-3.79 3.82-3.64c6.74 0.35 12.75 9.78 15.32 15.26c-1.04-4.3-3.49-8.1-5.9-11.81
			c3.79 3.33 6.96 7.35 9.3 11.82c-0.88-4.03-2.42-7.91-4.55-11.44c5.88 6.28 9.88 14.04 13.8 21.69
			C225.16 151.86 222.07 143.72 217.17 136.74z" fill="rgba(249,244,233,1)" data-uid="o_f951b8fg1_54"></path><path class="st0" d="M254.7 161.41c4.3 0.12 8.6 0.26 12.92 0.5c1.44 0.08 2.96 0.19 4.14 1.03c1.87 1.34 3.51 5.4 3.4 7.63
			c-0.59-2.17-2.81-3.57-5.03-3.96c-2.22-0.38-4.49 0.03-6.73 0.29c-4.52 0.53-9.12 0.42-13.61-0.31c4.76-0.89 9.6-1.41 14.45-1.56
			c-7.46-0.22-14.93-0.44-22.39-0.65c-3.5-0.1-6.96-0.1-9.72-2.54c-2-1.77-4.04-3.57-5.47-5.83c5.48 3.77 12.34 4.91 18.86 5.13
			C248.58 161.25 251.64 161.33 254.7 161.41z" fill="rgba(249,244,233,1)" data-uid="o_f951b8fg1_55"></path><path class="st1" d="M280.59 174.1c-0.04 2.51-0.08 5.02-0.13 7.53c-0.77-1.66-0.76-3.56-0.98-5.39
			c-0.38-3.23-3.91-4.27-3.62-7.92C278.74 169.03 280.63 171.23 280.59 174.1z" fill="#FF7000" data-uid="o_f951b8fg1_56"></path><path class="st1" d="M262.64 178.52c1.85 0.1 3.71 0.09 5.56-0.03c3.69-0.24 5.28-2.49 5.84-6.08c2.38 1.08 2.17 5.89 0.07 7.16
			C271.45 181.2 265.59 178.68 262.64 178.52z" fill="#FF7000" data-uid="o_f951b8fg1_57"></path><path class="st1" d="M250.29 181.54c0.95 0.01 1.94 0.02 2.76 0.4c1.42 0.66 1.83 2.14 2.08 3.46c1.13 5.88 3.25 13.08 0.61 18.86
			c1.15-6.32-2.65-12.47-3.79-18.79c-0.07-0.4-0.16-0.85-0.55-1.11c-0.27-0.18-0.63-0.23-0.97-0.28
			c-5.69-0.77-11.41-1.42-17.14-1.96C239.01 182.13 244.59 181.51 250.29 181.54z" fill="#FF7000" data-uid="o_f951b8fg1_58"></path><path class="st0" d="M237.08 189.12c1.85 0.74 6.56-0.41 8.58-0.62c-5.45-1.95-10.26-4.47-16.04-5.17
			c0.93 3.37 3.78 6.15 5.33 9.28c1.66 3.34 3.97 7.07 7.06 9.25c2.72 1.97 6.62 2.7 9.42 0.85c-2.98-1.4-5.96-2.79-8.94-4.19
			c2.53 0.08 5.06-0.06 7.56-0.41c-2.9-1.84-5.93-3.48-9.06-4.91c2.34-0.25 4.69-0.4 7.05-0.43
			C244.32 191.77 240.66 190.54 237.08 189.12z" fill="rgba(249,244,233,1)" data-uid="o_f951b8fg1_59"></path><path class="st1" d="M260.07 181.11c-1.16 0.21-2.83 0.76-4.03 0.63c-1.13 4.21 12.48 1.03 14.71 0.83
			C267.76 180.4 263.7 180.46 260.07 181.11z" fill="#FF7000" data-uid="o_f951b8fg1_60"></path><path class="st1" d="M282.08 223.39c-0.34-1.83-2.36-2.85-3.13-4.54c-0.36-0.78-0.43-1.67-0.48-2.53
			c-0.31-5.29-1-10.62-2.52-15.71c-0.76-2.55-1.72-5.07-3.03-7.39c-1.23-2.19-3.37-4.06-4.4-6.27c-0.22-0.48-0.38-1.02-0.28-1.54
			c0.1-0.52 0.52-1.01 1.05-1.05c0.72-0.05 1.23 0.67 1.58 1.3c3.21 5.71 6.3 11.33 8.25 17.62
			C281.23 210.03 280.93 216.59 282.08 223.39z" fill="#FF7000" data-uid="o_f951b8fg1_61"></path><path class="st1" d="M265.49 222.35c3.14-0.27 6.29-0.45 9.44-0.54c1.95-0.05 4.25 0.1 5.31 1.75c0.8 1.24 0.55 2.86 0.23 4.31
			c-0.06 0.27-0.15 0.58-0.42 0.67c-0.21 0.07-0.43-0.03-0.6-0.17c-1.03-0.86-0.64-2.85-1.82-3.49c-0.35-0.19-0.76-0.21-1.15-0.22
			c-3.59-0.14-7.17-0.27-10.76-0.41L265.49 222.35z" fill="#FF7000" data-uid="o_f951b8fg1_62"></path><path class="st0" d="M255.94 229.08c0.36-0.14 0.75-0.31 0.94-0.66c0.13-0.24 0.14-0.54 0.23-0.8c0.28-0.75 1.28-1.03 2.03-0.74
			c0.75 0.29 1.26 0.99 1.61 1.71c0.83 1.73 0.93 3.79 0.27 5.58c-0.62-1.87-1.87-3.53-3.49-4.64c0 1.22-0.2 2.44-0.59 3.59
			c-0.48-1.01-0.96-2.02-1.44-3.04c-0.6 1.03-0.96 2.19-1.04 3.38c-0.4-0.66-0.79-1.31-1.19-1.97c-0.07-0.12-0.18-0.26-0.32-0.25
			c-0.17 0.01-0.24 0.22-0.27 0.39c-0.12 0.68-0.24 1.37-0.36 2.05c-0.61-0.74-1.22-1.48-1.83-2.22c-0.31 0.82-0.61 1.65-0.92 2.47
			c-0.54-0.81-1.08-1.62-1.62-2.43c-0.25 1.08-0.63 2.13-1.21 3.05C242.82 230.65 254.4 229.68 255.94 229.08z" fill="rgba(249,244,233,1)" data-uid="o_f951b8fg1_63"></path><path class="st1" d="M223.87 172.69c2.57-0.67 2.87-4.24 2.59-6.39c-1.53 2.05-5.25 3.69-7.74 3.55
			c-1.98-0.11-3.84-0.91-5.65-1.73c-10.1-4.57-19.96-10.1-27.76-17.98c1.52 5 5.26 7.43 9.28 10.3c4.16 2.97 8.87 5.07 13.6 7.01
			c4.13 1.7 8.31 3.3 12.52 4.79C221.73 172.6 222.82 172.96 223.87 172.69z" fill="#FF7000" data-uid="o_f951b8fg1_64"></path><path class="st1" d="M252.08 176.75c-3.15-0.42-6.47-1.18-9.63-1.14c-2.74 0.04-4.69 0.22-7.23-1.28
			c-2.16-1.28-3.94-3.1-5.67-4.92c0.97 2.87 3.44 5.63 6.01 7.21c0.81 0.5 1.68 0.94 2.62 1.13c0.79 0.16 1.61 0.14 2.42 0.11
			C244.44 177.71 248.28 177.34 252.08 176.75z" fill="#FF7000" data-uid="o_f951b8fg1_65"></path><path class="st1" d="M173.19 161.46c0 0-0.85-0.54 0.82 8.28c1.67 8.82 13.81 68.53 15.26 73.87s14.73 5.34 28 7.52
			c13.27 2.18 12.89 2.16 16.72 1.81c3.83-0.35 20.58-8.18 20.58-8.18s-15.19 5.4-20.58 5.89c-5.39 0.49-37.68-5.34-40.59-7.04
			c-2.91-1.7-16.62-73.86-17.29-77.71C175.43 162.05 173.19 161.46 173.19 161.46z" fill="#FF7000" data-uid="o_f951b8fg1_66"></path><path class="st0" d="M197.59 176.09c0.47-0.52 1.11-0.98 2.01-1.39c1.27-0.57 2.56-1.09 3.87-1.58c-1.75-0.32-3.55 0.17-5.2 0.82
			c-1.04 0.41-2.07 0.9-2.83 1.71c-0.76 0.81-1.2 2-0.86 3.06c-0.69-1.06-0.8-2.46-0.28-3.61c0.51-1.15 1.64-2.01 2.88-2.2
			c-1.37 0.37-2.77 0.75-3.96 1.54c-1.19 0.78-2.14 2.06-2.18 3.48c-0.49-1-0.42-2.26 0.17-3.21c0.59-0.95 1.7-1.55 2.81-1.55
			c-2.36 0.41-4.56 1.67-6.11 3.5c-0.34-0.77 0.01-1.72 0.62-2.3c0.61-0.58 1.43-0.89 2.24-1.14c6.1-1.96 12.71-2.27 18.97-0.91
			c0.33 0.07 0.67 0.16 0.92 0.39c0.34 0.32 0.39 0.84 0.46 1.3c0.2 1.32 0.73 2.59 1.53 3.66c-3.19 1.21-6.5 2.01-9.69 3.17
			c-1.31 0.48-2.45 1.26-3.82 1.62c-0.35 0.09-3.97 0.27-3.92 0.15C196.36 180.12 196.03 177.81 197.59 176.09z" fill="rgba(249,244,233,1)" data-uid="o_f951b8fg1_67"></path><path class="st0" d="M195.42 185.24c1.3 0.43 2.88 0.32 4.23 0.2c1.46-0.13 2.88-0.41 4.31-0.78c2.94-0.75 5.81-1.74 8.69-2.67
			c1.12-0.36 0.64-2.14-0.49-1.77c-2.78 0.91-5.55 1.87-8.36 2.66c-1.33 0.38-2.69 0.7-4.04 0.99c-1.42 0.3-2.93 0.34-4.33 0.69
			C195.08 184.65 195.11 185.13 195.42 185.24z" fill="rgba(249,244,233,1)" data-uid="o_f951b8fg1_68"></path><path class="st0" d="M196.61 188.26c2.86 0.32 5.72 0.19 8.54-0.37c1.39-0.28 2.77-0.62 4.12-1.04c1.26-0.39 2.92-0.75 3.92-1.61
			c0.53-0.45 0.12-1.47-0.58-1.41c-0.67 0.05-1.26 0.36-1.88 0.59c-0.64 0.24-1.29 0.46-1.94 0.67c-1.31 0.41-2.63 0.77-3.97 1.06
			c-2.71 0.58-5.47 1.01-8.22 1.34C196.12 187.55 196.11 188.21 196.61 188.26z" fill="rgba(249,244,233,1)" data-uid="o_f951b8fg1_69"></path><path class="st0" d="M197.34 191.57c2.96 0.32 5.83 0.29 8.71-0.53c1.32-0.38 2.62-0.84 3.93-1.25c0.65-0.2 1.31-0.38 1.98-0.51
			c0.69-0.14 1.49-0.09 2.14-0.36c0.86-0.35 0.51-1.77-0.39-1.43l-0.14 0.05c-0.37 0.14-0.59 0.54-0.37 0.91l0.07 0.12
			c0.28-0.36 0.56-0.73 0.84-1.09c-1.13-0.36-2.76 0.17-3.86 0.47c-1.37 0.38-2.71 0.88-4.06 1.33c-2.87 0.96-5.83 1.28-8.84 1.48
			C196.83 190.82 196.84 191.52 197.34 191.57z" fill="rgba(249,244,233,1)" data-uid="o_f951b8fg1_70"></path><path class="st0" d="M198.25 195.19c2.77 0.28 5.47 0.4 8.24 0.12c1.35-0.13 2.7-0.31 4.03-0.56c0.68-0.13 1.35-0.27 2.02-0.43
			c0.63-0.15 1.26-0.21 1.72-0.7c0.39-0.42 0.21-1.07-0.33-1.24c-0.63-0.21-1.24 0.06-1.87 0.2c-0.67 0.16-1.34 0.29-2.02 0.43
			c-1.27 0.25-2.55 0.46-3.84 0.6c-2.63 0.3-5.31 0.53-7.95 0.51C197.56 194.12 197.59 195.12 198.25 195.19z" fill="rgba(249,244,233,1)" data-uid="o_f951b8fg1_71"></path><path class="st0" d="M198.61 198.39c1.26 0.09 2.52 0.28 3.79 0.23c1.17-0.04 2.34-0.12 3.5-0.27c2.35-0.3 4.89-0.63 7.1-1.53
			c1.02-0.42 0.65-1.87-0.46-1.67c-1.15 0.2-2.28 0.56-3.42 0.81c-1.15 0.25-2.29 0.48-3.45 0.66c-1.17 0.18-2.35 0.34-3.53 0.46
			c-1.18 0.13-2.33 0.36-3.52 0.44C198.06 197.56 198.06 198.35 198.61 198.39z" fill="rgba(249,244,233,1)" data-uid="o_f951b8fg1_72"></path><path class="st0" d="M194.52 203.53c0.22 0.1 0.43 0.18 0.67 0.23c0.25 0.05 0.51 0.1 0.76 0.09c0.47 0 0.96-0.03 1.41-0.17
			c0.38-0.12 0.62-0.47 0.56-0.86c-0.05-0.35-0.38-0.72-0.77-0.68c-0.17 0.02-0.33 0.05-0.5 0.07l0.21-0.03
			c-0.31 0.04-0.62 0.1-0.93 0.14l0.21-0.03c-0.28 0.04-0.56 0.08-0.84 0.12l-0.16 0.03l-0.09 0.01c0.11-0.01 0.1-0.01-0.01 0
			c-0.14 0.02-0.26 0.06-0.39 0.1c-0.2 0.06-0.35 0.23-0.38 0.44C194.24 203.19 194.33 203.44 194.52 203.53z" fill="rgba(249,244,233,1)" data-uid="o_f951b8fg1_73"></path><path class="st0" d="M195.17 207.24c0.41-0.03 0.82-0.05 1.23-0.06c0.21 0 0.4-0.01 0.61-0.03c0.1-0.01 0.2-0.02 0.29-0.02
			l0.15-0.01c0.2-0.02 0.35-0.05 0.52-0.14c0.3-0.16 0.44-0.52 0.4-0.84c-0.05-0.34-0.28-0.59-0.6-0.7
			c-0.26-0.09-0.55-0.02-0.81 0.01c-0.27 0.03-0.52 0.07-0.78 0.15c-0.4 0.11-0.8 0.24-1.19 0.38c-0.3 0.11-0.51 0.37-0.46 0.71
			C194.57 206.97 194.85 207.26 195.17 207.24z" fill="rgba(249,244,233,1)" data-uid="o_f951b8fg1_74"></path><path class="st0" d="M195.88 210.47l0.26 0.03c-0.12-0.03-0.25-0.07-0.37-0.1l0.25 0.1c0.1 0.02 0.19 0.03 0.29 0.03l0.26 0.01
			c0.17 0 0.34-0.02 0.51-0.05c0.24-0.03 0.47-0.07 0.71-0.12c0.28-0.06 0.6-0.09 0.8-0.34c0.11-0.11 0.18-0.23 0.22-0.38
			c0.04-0.11 0.04-0.23 0.02-0.34c-0.04-0.27-0.18-0.49-0.41-0.63c-0.26-0.16-0.51-0.15-0.8-0.1l-0.26 0.04
			c-0.17 0.03-0.34 0.06-0.51 0.1c-0.17 0.04-0.34 0.08-0.5 0.14c-0.25 0.1-0.53 0.18-0.72 0.38l0.15-0.11l-0.22 0.11
			c-0.25 0.13-0.39 0.48-0.3 0.75c0.04 0.11 0.09 0.21 0.17 0.29C195.54 210.41 195.71 210.45 195.88 210.47z" fill="rgba(249,244,233,1)" data-uid="o_f951b8fg1_75"></path><path class="st0" d="M195.7 213.28c0.32-0.03 0.63-0.07 0.95-0.1c0.16-0.02 0.31-0.03 0.47-0.05c0.14-0.02 0.29-0.04 0.43-0.06
			c0.21-0.03 0.37-0.15 0.53-0.29c0.22-0.18 0.28-0.54 0.21-0.81c-0.08-0.29-0.3-0.49-0.58-0.58c-0.42-0.13-0.89 0.06-1.3 0.17
			c-0.3 0.08-0.61 0.16-0.91 0.25c-0.36 0.1-0.59 0.46-0.54 0.82c0.02 0.16 0.09 0.32 0.21 0.43
			C195.31 213.19 195.51 213.31 195.7 213.28z" fill="rgba(249,244,233,1)" data-uid="o_f951b8fg1_76"></path><path class="st1" d="M228.64 188.76c1.51 4.12 3.03 8.24 4.54 12.36c0.47 1.28 0.95 2.66 0.64 3.99
			c-0.56 2.42-3.24 2.86-5.33 3.29c-1.32 0.27-2.69 0.29-4.02 0.05c-1.01-0.18-2.53-1.26-3.43-1.25c3.11-0.04 6.21-0.63 9.12-1.73
			c0.33-0.13 0.68-0.27 0.89-0.56c0.32-0.45 0.19-1.07 0.04-1.6c-1.07-3.84-2.29-7.65-3.66-11.4c-0.61-1.68-1.27-3.37-2.28-4.84
			c-1.75-2.52-5.94-5.47-8.88-6.3c2.62 0.74 5.95-1.57 8.49 0.57C226.69 182.97 227.81 186.51 228.64 188.76z" fill="#FF7000" data-uid="o_f951b8fg1_77"></path><path class="st1" d="M238.65 217.69c1.99 3.09 2.72 6.84 2.84 10.51c0.16 4.6-0.73 9.55-3.95 12.84
			c3.38-6.63 2.65-14.93-0.96-21.44c-0.25-0.46-0.54-0.92-0.98-1.2c-1.36-0.85-3.03 0.61-3.72 2.06c-0.82 1.73-1.18 3.68-1.04 5.59
			c-0.36-2.79-0.28-5.65 0.23-8.42c-1.62 2.22-2.57 4.92-2.7 7.67c-0.52-2.67-0.31-5.48 0.61-8.04c-1.78 1.94-2.9 4.48-3.13 7.1
			c0.24-2.75-0.65-5.31 1.13-7.86C230.57 211.37 235.63 213 238.65 217.69z" fill="#FF7000" data-uid="o_f951b8fg1_78"></path><path class="st0" d="M216.63 212.43c-3.05 1.71-5.01 5.24-5.94 8.53c-0.86 3.03-1.07 6.25-0.63 9.37
			c0.56-4.41 2.28-8.66 4.95-12.21c-1.18 3.08-1.42 6.51-0.68 9.72c0.16-3.75 1.36-7.45 3.44-10.58c-0.8 2.99-0.98 6.15-0.55 9.22
			c0.75-3.21 1.68-6.44 3.49-9.19c1.72-2.6 4.44-4.01 7.49-4.53c1.12-0.19 2.26-0.24 3.39-0.33c-0.54 0.05-2.03-1.05-2.65-1.24
			c-1.17-0.37-2.4-0.54-3.62-0.52c-1.99 0.03-4.23 0.49-6.2 0.86C218.23 211.69 217.4 212 216.63 212.43z" fill="rgba(249,244,233,1)" data-uid="o_f951b8fg1_79"></path><path class="st0" d="M229.49 242.82c-1.76-1.54-2.75-3.91-2.62-6.25c1.41 4.37 6.41 7.25 10.9 6.27
			c-2.22 0.66-4.46 1.33-6.77 1.53c-6.96 0.62-11.37-3.8-13.86-9.92c0.73 1.78 3.59 4.13 5.01 5.42
			C224.08 241.63 226.9 242.78 229.49 242.82z" fill="rgba(249,244,233,1)" data-uid="o_f951b8fg1_80"></path><path class="st0" d="M206.38 224.71c0.88-3.08 1.79-6.13 3.6-8.82c1.13-1.68 4.33-4.16 6.42-4.28c-4.04 0.22-6.95 0.61-10.36 2.68
			c-2.79 1.7-5.91 3.93-6.75 7.28c-0.38 1.5-0.33 3.06-0.26 4.6c1.23-2.54 2.68-4.97 4.32-7.26c-0.36 2.15-0.53 4.34-0.5 6.52
			c1.13-2.4 2.26-4.81 3.39-7.21C206.28 220.39 206.33 222.55 206.38 224.71z" fill="rgba(249,244,233,1)" data-uid="o_f951b8fg1_81"></path><path class="st1" d="M196.92 217.8c-0.63 0.57-3.44 0.49-4.47 0.85c-1.12 0.4-2.04 1.33-2.42 2.46c-0.53 1.54 0.23 2.49 0.58 3.88
			c0.38 1.52 0.44 3.19 0.7 4.73c0.57 3.3 1.3 6.57 2.2 9.8c0.06 0.23 0.13 0.47 0.3 0.64c0.18 0.19 0.46 0.26 0.71 0.32
			c1.51 0.35 3.05 0.54 4.6 0.56c-1.47-0.12-2.7-1.27-3.33-2.6c-0.64-1.33-0.79-2.83-0.93-4.3c-0.21-2.13-0.41-4.26-0.62-6.38
			c-0.17-1.78-0.35-3.6 0.03-5.35C194.64 220.66 195.58 219.02 196.92 217.8z" fill="#FF7000" data-uid="o_f951b8fg1_82"></path><path class="st0" d="M262.4 233.72c-1.4 4.2-2.53 7.52-6.1 10.31c0.44-0.34 2.39 0.11 3.16-0.33c0.98-0.56 1.34-1.22 1.79-2.26
			C262.31 239.01 262.38 236.34 262.4 233.72z" fill="rgba(249,244,233,1)" data-uid="o_f951b8fg1_83"></path><path class="st0" d="M264.66 188.94c-0.97-0.17-2.32-0.19-3.08-0.71c0.79-0.73 1.95-1.04 2.92-1.5c-1.38-0.31-2.98-0.27-4.31 0.27
			c-0.43 0.18-3.45 2.06-3.14 2.59c0.38 0.66 1.01 1.13 1.72 1.43c-0.58 0.63-0.64 1.68-0.14 2.38c0.17 0.23 0.39 0.43 0.48 0.7
			c0.26 0.79-0.76 1.5-0.71 2.34c0.06 1.06 1.77 1.61 1.53 2.65c-0.11 0.49-0.63 0.77-0.84 1.23c-0.51 1.08 0.91 2.18 0.87 3.37
			c-0.03 0.85-0.81 1.67-0.48 2.46c0.24 0.59 0.99 0.82 1.26 1.39c0.48 1.01-0.83 2.12-0.58 3.21c0.17 0.78 1.08 1.26 1.15 2.05
			c0.09 0.91-0.97 1.76-0.6 2.59c0.14 0.32 0.47 0.52 0.65 0.83c0.29 0.51 0.08 1.15 0.07 1.74c-0.02 1.58 1.58 2.8 3.15 2.96
			c1.58 0.15 3.11-0.48 4.57-1.09c-1.44-0.33-2.88-0.65-4.32-0.98c1.62-0.29 3.17-0.93 4.51-1.87c-1.62-0.16-3.25-0.32-4.87-0.48
			c1.87-0.63 3.73-1.27 5.6-1.9c-2.1-0.08-4.19-0.5-6.16-1.23c1.66-0.4 3.25-1.07 4.69-2c-1.82-0.18-3.63-0.35-5.45-0.53
			c1.57-1.31 3.49-2.2 5.5-2.56c-1.56-0.51-3.11-1.03-4.66-1.58c1.27-0.72 2.53-1.44 3.8-2.16c-0.64-0.87-1.61-1.48-2.67-1.67
			c1.07-0.47 2-1.25 2.66-2.21c-1.05-0.41-2.16-0.66-3.28-0.74c0.94-0.53 1.87-1.06 2.81-1.59c-0.95-0.35-1.9-0.7-2.84-1.05
			c0.43-0.86 2.22-1.05 1.81-1.92c-0.12-0.26-0.42-0.38-0.7-0.47c-1.02-0.32-2.07-0.53-3.14-0.61c0.9-0.66 1.8-1.32 2.7-1.99
			c-1-0.46-2.07-0.77-3.16-0.9C262.79 190.47 263.68 189.64 264.66 188.94z" fill="rgba(249,244,233,1)" data-uid="o_f951b8fg1_84"></path><path class="st1" d="M269.4 193.78c-1.35-2.69-0.18-4.8-2.85-6.65c1.53 1.06 0.57 2.23 0.46 3.48c-0.1 1.18 0.72 2.09 0.82 3.21
			c0.11 1.3-0.71 2.28 0.17 3.49c0.42 0.58 0.98 1.12 1.09 1.83c0.14 0.86-0.42 1.8-0.03 2.58c0.18 0.36 0.55 0.64 0.6 1.04
			c0.08 0.6-0.58 1.07-0.59 1.67c-0.01 0.76 0.96 1.18 1.14 1.92c0.22 0.92-0.88 1.8-0.58 2.7c0.18 0.54 0.84 0.96 0.68 1.5
			c-0.06 0.19-0.21 0.33-0.33 0.49c-0.66 0.9-0.24 2.14-0.19 3.26c0.05 1.08-0.3 2.18-0.97 3.04c0.87-1.11 2.46-2.04 2.06-3.72
			c-0.09-0.37-0.27-0.73-0.29-1.11c-0.06-1.01 0.97-1.87 0.84-2.88c-0.09-0.75-0.8-1.34-0.8-2.09c0-0.48 0.29-0.91 0.41-1.37
			c0.4-1.49-0.95-2.96-0.81-4.5c0.12-1.23 1.13-2.61 0.31-3.53c-0.22-0.25-0.54-0.4-0.72-0.68c-0.41-0.64 0.17-1.46 0.14-2.21
			C269.94 194.72 269.63 194.26 269.4 193.78z" fill="#FF7000" data-uid="o_f951b8fg1_85"></path><path class="st1" d="M257.7 214.62c-2.54-0.68-6.26-0.81-8.22-2.62c-1.54-1.42-2.25-3.59-3.88-4.89c0.59 0.47 1.14 3.67 1.68 4.58
			c0.87 1.45 1.83 2.68 3.51 3.21C253.17 215.65 255.57 214.05 257.7 214.62z" fill="#FF7000" data-uid="o_f951b8fg1_86"></path><path class="st0" d="M178.92 222.29c-0.05 1.33-0.03 2.72 0.26 4.01c0.78-1.5 2.93-4.4 1.41-5.83c-1.4-1.31-4.75-0.36-5.98 0.73
			c-1.06 0.94-1.01 3.3-1.81 3.96c1.2-1 2.43-1.96 3.69-2.88c-0.69 1.01-1.05 2.24-0.99 3.46c0.02 0.37 0.19 0.84 0.56 0.81
			C176.67 224.93 177.66 223.47 178.92 222.29z" fill="rgba(249,244,233,1)" data-uid="o_f951b8fg1_87"></path><path class="st1" d="M263.19 241.66c-0.26 1.34-0.15 2.72-0.31 4.08c-0.3 2.56-1.69 3.93-4.25 4.11
			c-1.53 0.11-3.27-0.03-3.26-2.02c0.01 1.05 0.07 2.13 0.36 3.15c0.81 2.77 4.52 4.07 6.93 2.33c0.59-0.43 1.05-1.02 1.42-1.66
			c1.61-2.76 2.2-6.38 1.03-9.4c-0.01 1.36-0.31 2.71-0.87 3.94C264.3 244.62 263.93 243.04 263.19 241.66z" fill="#FF7000" data-uid="o_f951b8fg1_88"></path><path class="st0" d="M271.98 251.46c0.26 4.08-2.36 7.79-2.88 11.84c0.34-3.25 0.67-6.5 1.01-9.75c-0.61 3.42-1.68 6.75-3.18 9.87
			c0.56-3.26 0.76-6.59 0.6-9.9c-1.4 6.27-2.63 11.81-6.6 17.04c-0.38 0.5-0.78 1-1.3 1.36c-1.24 0.86-2.89 0.75-4.4 0.61
			c-0.83-0.08-1.73-0.18-2.33-0.77c2.54 1.78 6.22 3.79 9.41 2.99c2.9-0.72 5.24-3.45 6.62-5.95
			C271.78 263.7 272.34 257.22 271.98 251.46z" fill="rgba(249,244,233,1)" data-uid="o_f951b8fg1_89"></path><path class="st1" d="M272.08 228.56l2.27-1.37c0 0 2 6.52 2.37 21.61c0.36 15.08-1.6 26.01-6.63 32.2
			c5.17-12.02 5.16-30.04 5.08-36.23C275.08 238.58 272.08 228.56 272.08 228.56z" fill="#FF7000" data-uid="o_f951b8fg1_90"></path><path class="st0" d="M229.96 256.38c1.03 6.82 3.44 13.43 7.05 19.31c-1.4-4.28-2.31-8.72-2.7-13.21
			c0.68 3.74 2.66 7.22 5.51 9.73c-2.39-3.93-3.82-8.43-4.14-13.01c1.1 2.04 2.19 4.08 3.29 6.12c-1.4-3.34-2.19-6.93-2.32-10.55
			L229.96 256.38z" fill="rgba(249,244,233,1)" data-uid="o_f951b8fg1_91"></path><path class="st1" d="M268.02 229.52c-0.28 0.41-0.92 0.5-1.12 0.95c-0.25 0.58 0.38 1.11 0.78 1.6c0.54 0.66 0.7 1.55 0.72 2.4
			c0.02 0.91-0.12 1.88-0.71 2.57c-0.59 0.69-1.73 0.97-2.43 0.38c1.12-2.69 0.74-5.9-0.9-8.34c-0.1-0.15-0.21-0.31-0.18-0.49
			c0.03-0.16 0.16-0.28 0.29-0.37C265.36 227.56 269.29 227.69 268.02 229.52z" fill="#FF7000" data-uid="o_f951b8fg1_92"></path><path class="st0" d="M244.12 205.05c-2.83 6.76-1.1 15.32 2.87 21.29c-2.31-1.38-4.23-3.39-5.51-5.76
			c-1.69-3.14-1.52-6.03-0.85-9.4c0.21-1.06 0.27-1.94 0.77-2.93C242.01 207.07 243.66 206.15 244.12 205.05z" fill="rgba(249,244,233,1)" data-uid="o_f951b8fg1_93"></path><path class="st1" d="M262.51 223.46c-0.43 0.7-0.48 1.62-0.13 2.37c0.21 0.44 0.62 0.84 1.1 0.8c0.37-0.03 0.68-0.33 0.84-0.67
			c0.44-0.92-0.11-2.16-1.08-2.46" fill="#FF7000" data-uid="o_f951b8fg1_94"></path><path class="st0" d="M171.86 250.47c0.59 3.89 6.31 3.69 9.14 3.8c2.11 0.08 3.98 0.66 6.06 0.98c2.16 0.34 4.73-0.41 6.74 0.01
			c-3.41-0.72-6.82-1.44-10.23-2.16c-2.19-0.46-4.43-0.95-6.3-2.17c-2.07-1.35-3.49-3.47-4.82-5.55
			C171.81 246.98 171.6 248.76 171.86 250.47z" fill="rgba(249,244,233,1)" data-uid="o_f951b8fg1_95"></path><path class="st0" d="M103.07 224.12c0.02 2.52 0.6 5.03 1.74 7.29c-0.21-3.64 0.31-7.33 1.52-10.77
			c-0.89 2.53 0.21 7.44 1.17 9.93c0.72-3.33 1.44-6.65 2.16-9.98c-0.38 3.72 0.43 7.55 2.28 10.8c-2.59-4.54-0.29-15.82 2.84-19.56
			c-0.08 0.1-4.91-0.25-5.53-0.29c-0.37-0.02-0.75-0.04-1.08 0.11c-0.37 0.16-0.62 0.49-0.86 0.82
			C104.89 215.83 103.03 219.92 103.07 224.12z" fill="rgba(249,244,233,1)" data-uid="o_f951b8fg1_96"></path><path class="st0" d="M123.25 179.07c-3.5-1.81-6.9-0.68-8.63 2.78c-5.4 10.78-9.5 21.95-12.89 33.51
			c0.57-1.95 3.62-4.27 4.73-6.15c3.1-5.27 4.09-10.68 6.23-16.32c0.81-2.14 1.88-4.19 2.32-6.27c0.82-1.59 1.66-3.17 2.53-4.73
			c0.63-1.13 1.69-2.42 2.93-2.07c-0.43 4.15-1.35 8.25-2.73 12.19C119.56 187.84 122.1 183.46 123.25 179.07z" fill="rgba(249,244,233,1)" data-uid="o_f951b8fg1_97"></path><path class="st0" d="M125.25 106.95c0.08 0.16 0.17 0.32 0.29 0.49c-0.84-1.27 7.19-1.36 7.87-1.05c0.5-1.02 0.76-2.16 0.74-3.3
			C132.22 103 123.13 102.79 125.25 106.95z" fill="rgba(249,244,233,1)" data-uid="o_f951b8fg1_98"></path><path class="st1" d="M126.4 108.63l1.7 1.22c1.9 0.24 3.87-0.1 5.59-0.96C131.26 108.8 128.83 108.71 126.4 108.63z" fill="#FF7000" data-uid="o_f951b8fg1_99"></path><path class="st0" d="M214.29 91.69c2.27-2.73 3.89-6.06 5.74-9.09c0.87-1.42 1.73-2.9 2.93-4.07c1.21-1.17 2.72-1.96 4.24-2.64
			c3.29-1.48 6.65-2.85 9.98-4.23c1.76-0.73 3.53-1.46 5.29-2.19c1.67-0.69 3.49-1.27 5.05-2.16c0.92-0.53 0.3-1.98-0.72-1.71
			c-1.89 0.51-3.72 1.46-5.53 2.21c-1.84 0.75-3.67 1.51-5.52 2.26c-3.4 1.39-6.91 2.61-10.23 4.19c-3.16 1.51-5.2 3.7-7.01 6.65
			c-1.96 3.19-4.27 6.5-5.47 10.06C212.83 91.65 213.82 92.25 214.29 91.69z" fill="rgba(249,244,233,1)" data-uid="o_f951b8fg1_100"></path><path class="st0" d="M124.66 76.3c1.63 1.4 3.84 2.26 5.75 3.23c1.81 0.91 3.96 1.65 5.5 2.99c1.44 1.25 2.02 3.14 2.22 4.98
			c0.19 1.76 0 3.85 1.06 5.38c0.59 0.86 1.81 0.13 1.39-0.81c-0.81-1.79-0.51-3.83-0.86-5.72c-0.34-1.88-1.12-3.76-2.6-5.03
			c-1.56-1.35-3.59-2.13-5.46-2.97c-1.09-0.49-2.18-0.99-3.29-1.46c-1.09-0.47-2.17-1.01-3.35-1.22
			C124.69 75.61 124.35 76.03 124.66 76.3z" fill="rgba(249,244,233,1)" data-uid="o_f951b8fg1_101"></path><path class="st0" d="M247.38 63.83c1.39 0.11 2.8 1.14 2.84 2.53c0.05 1.63-1.63 2.71-3.08 3.44c-1.54 0.77-3.08 1.55-4.62 2.32
			c-0.52 0.26 2.36 3.25 2.8 3.52c1.3 0.82 3.05 1.33 4.44 0.59c-0.99-1.09-2.44-1.8-3.55-2.84c-0.29-0.27-0.59-0.6-0.62-1
			c-0.03-0.5 0.41-0.93 0.88-1.1c0.47-0.17 0.99-0.17 1.49-0.26c2.46-0.44 3.9-2.94 5.02-5.18c0.34-0.68 0.88-1.48 1.64-1.38
			c0.67 0.09 1.03 0.85 1.15 1.52c0.52 3.04-1.41 5.9-3.23 8.38c6.52-1.92 5.9-11.04 1.99-15.01c-3.22-3.27-9.8-3.49-12.36 0.69
			c-1.07 1.74-1.47 3.83-1.51 5.88C241.93 64.82 245.72 63.7 247.38 63.83z" fill="rgba(249,244,233,1)" data-uid="o_f951b8fg1_102"></path><path class="st0" d="M121.21 81.27c-0.68-0.15-1.24-0.81-1.41-1.51c-0.95-3.9 1.26-9.17 4.84-10.99c0.69-0.35 1.56-0.59 2.22-0.18
			c0.47 0.29 0.71 0.82 0.9 1.34c0.64 1.74 0.94 3.6 0.88 5.45c-0.85-0.4-1.73-0.73-2.64-0.98c-1.11-0.31-2.49-0.44-3.26 0.43
			c-2.17 2.47 2.74 4.46 4.27 5.12c-0.66-0.28-2.34 2.19-3.48 2.23c0.45-0.47 0.7-1.13 0.68-1.78c-0.91-0.19-1.66 0.81-2.58 0.9
			C121.49 81.31 121.35 81.3 121.21 81.27z" fill="rgba(249,244,233,1)" data-uid="o_f951b8fg1_103"></path></g><path class="st2" d="M103.06 133.56" fill="#FF0000" data-uid="o_f951b8fg1_104"></path></g></svg>